<mxfile host="app.diagrams.net" modified="2022-03-08T22:35:14.330Z" agent="5.0 (X11)" etag="FDomrhnuNlrZ2DpJryKM" version="16.6.7" type="github">
  <diagram id="Y3Ub-ZhA2BGGuwcPTwrd" name="Page-1">
    <mxGraphModel dx="1182" dy="739" grid="1" gridSize="10" guides="1" tooltips="1" connect="1" arrows="1" fold="1" page="1" pageScale="1" pageWidth="850" pageHeight="1100" math="0" shadow="0">
      <root>
        <mxCell id="0" />
        <mxCell id="1" parent="0" />
        <mxCell id="wSs9KvBMF2s4D5KCSqFX-1" value="Stock" style="rounded=1;whiteSpace=wrap;html=1;fillColor=#f5f5f5;fontColor=#333333;strokeColor=#666666;" parent="1" vertex="1">
          <mxGeometry x="80" y="80" width="120" height="60" as="geometry" />
        </mxCell>
        <mxCell id="wSs9KvBMF2s4D5KCSqFX-2" value="&lt;div&gt;Surface&lt;/div&gt;&lt;div&gt;speed&lt;br&gt;&lt;/div&gt;" style="rounded=1;whiteSpace=wrap;html=1;" parent="1" vertex="1">
          <mxGeometry x="360" y="80" width="120" height="60" as="geometry" />
        </mxCell>
        <mxCell id="wSs9KvBMF2s4D5KCSqFX-3" value="Speed" style="rounded=1;whiteSpace=wrap;html=1;fillColor=#d5e8d4;strokeColor=#82b366;" parent="1" vertex="1">
          <mxGeometry x="640" y="80" width="120" height="60" as="geometry" />
        </mxCell>
        <mxCell id="wSs9KvBMF2s4D5KCSqFX-4" value="Tool" style="rounded=1;whiteSpace=wrap;html=1;fillColor=#f5f5f5;fontColor=#333333;strokeColor=#666666;" parent="1" vertex="1">
          <mxGeometry x="80" y="190" width="120" height="150" as="geometry" />
        </mxCell>
        <mxCell id="wSs9KvBMF2s4D5KCSqFX-5" value="Chipload" style="rounded=1;whiteSpace=wrap;html=1;" parent="1" vertex="1">
          <mxGeometry x="360" y="240" width="120" height="60" as="geometry" />
        </mxCell>
        <mxCell id="wSs9KvBMF2s4D5KCSqFX-6" value="hFeed" style="rounded=1;whiteSpace=wrap;html=1;fillColor=#d5e8d4;strokeColor=#82b366;" parent="1" vertex="1">
          <mxGeometry x="640" y="240" width="120" height="60" as="geometry" />
        </mxCell>
        <mxCell id="wSs9KvBMF2s4D5KCSqFX-7" value="Engagement" style="rounded=1;whiteSpace=wrap;html=1;fillColor=#f5f5f5;fontColor=#333333;strokeColor=#666666;" parent="1" vertex="1">
          <mxGeometry x="80" y="360" width="120" height="60" as="geometry" />
        </mxCell>
        <mxCell id="wSs9KvBMF2s4D5KCSqFX-8" value="Power" style="rounded=1;whiteSpace=wrap;html=1;fillColor=#d5e8d4;strokeColor=#82b366;" parent="1" vertex="1">
          <mxGeometry x="640" y="480" width="120" height="60" as="geometry" />
        </mxCell>
        <mxCell id="wSs9KvBMF2s4D5KCSqFX-20" value="" style="edgeStyle=orthogonalEdgeStyle;rounded=0;orthogonalLoop=1;jettySize=auto;html=1;strokeWidth=2;" parent="1" source="wSs9KvBMF2s4D5KCSqFX-9" target="wSs9KvBMF2s4D5KCSqFX-8" edge="1">
          <mxGeometry relative="1" as="geometry" />
        </mxCell>
        <mxCell id="wSs9KvBMF2s4D5KCSqFX-9" value="MRR" style="rounded=1;whiteSpace=wrap;html=1;fillColor=#d5e8d4;strokeColor=#82b366;" parent="1" vertex="1">
          <mxGeometry x="640" y="360" width="120" height="60" as="geometry" />
        </mxCell>
        <mxCell id="wSs9KvBMF2s4D5KCSqFX-10" value="StepOver, StepDown" style="endArrow=classic;html=1;rounded=0;exitX=1;exitY=0.5;exitDx=0;exitDy=0;entryX=0;entryY=0.5;entryDx=0;entryDy=0;strokeWidth=2;" parent="1" source="wSs9KvBMF2s4D5KCSqFX-7" target="wSs9KvBMF2s4D5KCSqFX-9" edge="1">
          <mxGeometry x="-0.6818" y="-10" width="50" height="50" relative="1" as="geometry">
            <mxPoint x="400" y="410" as="sourcePoint" />
            <mxPoint x="450" y="360" as="targetPoint" />
            <mxPoint as="offset" />
          </mxGeometry>
        </mxCell>
        <mxCell id="wSs9KvBMF2s4D5KCSqFX-11" value="material" style="endArrow=classic;html=1;rounded=0;entryX=0;entryY=0.5;entryDx=0;entryDy=0;fillColor=#e1d5e7;strokeColor=#9673a6;strokeWidth=2;" parent="1" target="wSs9KvBMF2s4D5KCSqFX-2" edge="1">
          <mxGeometry x="-0.625" y="10" width="50" height="50" relative="1" as="geometry">
            <mxPoint x="200" y="110" as="sourcePoint" />
            <mxPoint x="250" y="60" as="targetPoint" />
            <mxPoint as="offset" />
          </mxGeometry>
        </mxCell>
        <mxCell id="wSs9KvBMF2s4D5KCSqFX-12" value="&amp;nbsp;material, diameter, type" style="endArrow=classic;html=1;rounded=0;exitX=1;exitY=0.5;exitDx=0;exitDy=0;strokeWidth=2;" parent="1" edge="1">
          <mxGeometry x="-0.1321" y="-10" width="50" height="50" relative="1" as="geometry">
            <mxPoint x="201" y="270" as="sourcePoint" />
            <mxPoint x="360" y="270" as="targetPoint" />
            <mxPoint as="offset" />
          </mxGeometry>
        </mxCell>
        <mxCell id="wSs9KvBMF2s4D5KCSqFX-13" value="material" style="endArrow=classic;html=1;rounded=0;entryX=0;entryY=0;entryDx=0;entryDy=0;exitX=1;exitY=0.5;exitDx=0;exitDy=0;fillColor=#e1d5e7;strokeColor=#9673a6;strokeWidth=2;" parent="1" source="wSs9KvBMF2s4D5KCSqFX-1" target="wSs9KvBMF2s4D5KCSqFX-5" edge="1">
          <mxGeometry x="-0.5906" y="-4" width="50" height="50" relative="1" as="geometry">
            <mxPoint x="220" y="130" as="sourcePoint" />
            <mxPoint x="380" y="130" as="targetPoint" />
            <mxPoint as="offset" />
          </mxGeometry>
        </mxCell>
        <mxCell id="wSs9KvBMF2s4D5KCSqFX-14" value="material" style="endArrow=classic;html=1;rounded=0;entryX=0;entryY=1;entryDx=0;entryDy=0;exitX=1;exitY=0;exitDx=0;exitDy=0;strokeWidth=2;" parent="1" source="wSs9KvBMF2s4D5KCSqFX-4" target="wSs9KvBMF2s4D5KCSqFX-2" edge="1">
          <mxGeometry x="-0.5872" y="10" width="50" height="50" relative="1" as="geometry">
            <mxPoint x="230" y="140" as="sourcePoint" />
            <mxPoint x="390" y="140" as="targetPoint" />
            <mxPoint as="offset" />
          </mxGeometry>
        </mxCell>
        <mxCell id="wSs9KvBMF2s4D5KCSqFX-15" value="" style="endArrow=classic;html=1;rounded=0;entryX=0;entryY=0.5;entryDx=0;entryDy=0;strokeWidth=2;" parent="1" edge="1">
          <mxGeometry width="50" height="50" relative="1" as="geometry">
            <mxPoint x="480" y="109.5" as="sourcePoint" />
            <mxPoint x="640" y="109.5" as="targetPoint" />
          </mxGeometry>
        </mxCell>
        <mxCell id="wSs9KvBMF2s4D5KCSqFX-16" value="" style="endArrow=classic;html=1;rounded=0;exitX=1;exitY=0.5;exitDx=0;exitDy=0;entryX=0;entryY=0.5;entryDx=0;entryDy=0;strokeWidth=2;" parent="1" source="wSs9KvBMF2s4D5KCSqFX-5" target="wSs9KvBMF2s4D5KCSqFX-6" edge="1">
          <mxGeometry width="50" height="50" relative="1" as="geometry">
            <mxPoint x="540" y="270" as="sourcePoint" />
            <mxPoint x="630" y="270" as="targetPoint" />
          </mxGeometry>
        </mxCell>
        <mxCell id="wSs9KvBMF2s4D5KCSqFX-17" value="" style="endArrow=classic;html=1;rounded=0;entryX=0.5;entryY=0;entryDx=0;entryDy=0;exitX=0.5;exitY=1;exitDx=0;exitDy=0;strokeWidth=2;" parent="1" source="wSs9KvBMF2s4D5KCSqFX-3" target="wSs9KvBMF2s4D5KCSqFX-6" edge="1">
          <mxGeometry width="50" height="50" relative="1" as="geometry">
            <mxPoint x="260" y="170" as="sourcePoint" />
            <mxPoint x="420" y="170" as="targetPoint" />
          </mxGeometry>
        </mxCell>
        <mxCell id="wSs9KvBMF2s4D5KCSqFX-18" value="" style="endArrow=classic;html=1;rounded=0;entryX=0.5;entryY=0;entryDx=0;entryDy=0;exitX=0.5;exitY=1;exitDx=0;exitDy=0;strokeWidth=2;" parent="1" source="wSs9KvBMF2s4D5KCSqFX-6" target="wSs9KvBMF2s4D5KCSqFX-9" edge="1">
          <mxGeometry width="50" height="50" relative="1" as="geometry">
            <mxPoint x="710" y="150" as="sourcePoint" />
            <mxPoint x="710" y="250" as="targetPoint" />
          </mxGeometry>
        </mxCell>
        <mxCell id="wSs9KvBMF2s4D5KCSqFX-19" value="" style="endArrow=classic;html=1;rounded=0;entryX=0.5;entryY=0;entryDx=0;entryDy=0;strokeWidth=2;" parent="1" target="wSs9KvBMF2s4D5KCSqFX-8" edge="1">
          <mxGeometry width="50" height="50" relative="1" as="geometry">
            <mxPoint x="700" y="420" as="sourcePoint" />
            <mxPoint x="720" y="260" as="targetPoint" />
          </mxGeometry>
        </mxCell>
        <mxCell id="wSs9KvBMF2s4D5KCSqFX-21" value="Flutes" style="endArrow=classic;html=1;rounded=0;exitX=0.992;exitY=0.88;exitDx=0;exitDy=0;entryX=0;entryY=1;entryDx=0;entryDy=0;exitPerimeter=0;strokeWidth=2;" parent="1" source="wSs9KvBMF2s4D5KCSqFX-4" target="wSs9KvBMF2s4D5KCSqFX-6" edge="1">
          <mxGeometry x="-0.8603" y="-8" width="50" height="50" relative="1" as="geometry">
            <mxPoint x="400" y="410" as="sourcePoint" />
            <mxPoint x="630" y="310" as="targetPoint" />
            <Array as="points">
              <mxPoint x="510" y="320" />
            </Array>
            <mxPoint as="offset" />
          </mxGeometry>
        </mxCell>
        <mxCell id="wSs9KvBMF2s4D5KCSqFX-24" value="diameter" style="endArrow=classic;html=1;rounded=0;entryX=0;entryY=1;entryDx=0;entryDy=0;exitX=1;exitY=0.25;exitDx=0;exitDy=0;strokeWidth=2;" parent="1" source="wSs9KvBMF2s4D5KCSqFX-4" target="wSs9KvBMF2s4D5KCSqFX-3" edge="1">
          <mxGeometry x="-0.8536" y="11" width="50" height="50" relative="1" as="geometry">
            <mxPoint x="240" y="210" as="sourcePoint" />
            <mxPoint x="450" y="360" as="targetPoint" />
            <mxPoint as="offset" />
          </mxGeometry>
        </mxCell>
      </root>
    </mxGraphModel>
  </diagram>
</mxfile>
